<?xml version="1.0" encoding="UTF-8"?>
<svg id="Layer_2" data-name="Layer 2" xmlns="http://www.w3.org/2000/svg" viewBox="0 0 339.42 383.21">
  <defs>
    <style>
      .cls-1 {
        fill: #fccd67;
      }
    </style>
  </defs>
  <g id="Layer_2-2" data-name="Layer 2">
    <path class="cls-1" d="M293.13,0c7.92,2.46,13.82,6.98,16.02,15.41,.61,2.34,.54,4.69,.55,7.05,.03,7.48,.16,14.97-.06,22.45-.09,2.93,.89,3.73,3.6,3.43,1.85-.2,3.74-.08,5.61-.02,11.69,.39,20.09,8.34,20.34,20.07,.32,14.58,.31,29.18,0,43.77-.22,10.41-6.92,17.82-17.14,19.62-39.84,7.03-79.7,13.98-119.55,20.96-5.4,.95-10.79,1.89-16.17,2.9-4.97,.93-7.73,3.97-7.85,8.96-.15,5.73,.06,11.48-.11,17.21-.07,2.19,.9,2.39,2.64,2.35,4.11-.08,8.23-.08,12.35-.01,4.38,.07,6.45,2.04,6.52,6.38,.1,5.73,.06,11.47,.01,17.21-.02,1.86-.05,3.06,2.52,3.47,3.76,.6,4.45,3.78,4.44,7.17-.04,15.34-.01,30.68-.02,46.02,0,5.74,.07,11.47-.03,17.21-.07,3.99-2.46,6.51-5.76,6.43-3.18-.07-5.3-2.5-5.47-6.31-.04-1-.01-2-.01-2.99,0-17.71-.07-35.42,.07-53.12,.02-2.81-.67-3.5-3.47-3.46-12.97,.16-25.94,.14-38.91,.01-2.55-.03-3.32,.52-3.31,3.22,.1,40.9,.03,81.81,.09,122.71,.02,13.63,9.71,23.72,22.56,23.78,12.85,.07,22.72-9.91,22.93-23.48,.17-11.6,.04-23.2,.04-34.79,0-2.49-.04-4.99,.01-7.48,.08-4.41,2.16-6.86,5.69-6.8,3.39,.06,5.54,2.45,5.55,6.61,.06,14.34,.29,28.69-.05,43.02-.43,18.22-12.97,31.94-30.48,34.04-15.8,1.9-31.31-8.49-36.12-24.12-1.11-3.62-1.4-7.33-1.4-11.08,0-43.15,0-86.3-.03-129.45,0-3.95,.98-6.96,5.5-7.35,1.86-.16,1.36-1.47,1.36-2.46,.04-5.86-.01-11.72,.03-17.58,.04-4.82,1.99-6.75,6.83-6.81,3.62-.04,7.25-.21,10.84,.05,2.99,.22,4.17-.47,3.95-3.76-.32-4.84-.12-9.72-.08-14.59,.1-12.04,6.68-19.48,18.5-21.52,31.77-5.48,63.52-11.12,95.28-16.69,12.26-2.15,24.52-4.33,36.79-6.43,8-1.37,10.32-4.06,10.32-12.29,0-12.6,.01-25.19,0-37.79,0-8.44-3.09-11.55-11.44-11.59q-6.86-.04-6.86,6.76c0,6.98,.07,13.97-.02,20.95-.16,11.9-8.74,20.47-20.6,20.51-17.96,.06-35.92,.02-53.87,.01-4.4,0-6.97-2.02-7.08-5.44-.11-3.54,2.61-5.78,7.15-5.78,17.33-.02,34.67,0,52-.01,7.99,0,11.16-3.12,11.17-11.01,.01-21.2,.02-42.4,0-63.6,0-7.36-3.36-10.7-10.74-10.71-31.3-.02-62.6,.05-93.91-.09-2.99-.01-3.37,.94-3.35,3.55,.12,15.84,.19,31.68,.02,47.51-.19,17.22-17.56,27.95-32.46,20.11-8-4.21-11.8-11.15-12.05-20.08-.11-3.99,.06-7.98-.05-11.97-.18-6.52-5-11.34-11.06-11.22-6.08,.12-10.76,5.01-10.79,11.54-.06,14.34,.05,28.68-.09,43.02-.03,2.59,.85,2.99,3.15,2.98,27.19-.07,54.37-.05,81.56-.04,1.24,0,2.55-.15,3.72,.16,2.83,.74,4.54,2.6,4.41,5.66-.12,3.03-1.88,4.8-4.8,5.33-1.09,.2-2.24,.08-3.36,.08-27.06,0-54.12,.04-81.19-.06-2.71-.01-3.6,.51-3.52,3.41,.23,8.1,.13,16.21,.06,24.32-.11,12.71-9.72,22.48-22.06,22.53-12.43,.04-22.06-9.51-22.26-22.27-.13-8.35-.12-16.71,.03-25.06,.04-2.34-.65-2.93-2.93-2.9-10.97,.12-21.95,.07-32.92,.05-12.18-.03-20.63-7.74-21.34-19.81-.16-2.75-1.07-3.24-3.51-3.13-4.23,.18-8.48,.14-12.72,0-4.2-.14-6.22-2.09-6.25-6.31C-.02,62.08-.02,45.62,.07,29.16c.02-4.2,2.12-6.07,6.35-6.13,4.49-.07,8.98-.1,13.47,.02,1.94,.05,2.51-.54,2.59-2.51,.37-9.76,5.22-16.35,14.42-19.69,.47-.17,.95-.26,1.06-.84h255.17ZM112.79,92.55h.02c0-14.34-.14-28.68,.04-43.02,.15-11.91,9.94-21.49,21.8-21.73,11.79-.25,21.79,9.04,22.44,21,.24,4.35,.03,8.73,.14,13.09,.17,6.95,4.67,11.68,10.99,11.66,6.34-.01,10.97-4.78,11.01-11.65,.08-15.96-.03-31.92,.09-47.88,.02-2.41-.76-2.84-2.96-2.84-27.56,.07-55.11,.08-82.67-.02-2.42,0-2.84,.75-2.81,2.94,.12,8.85,.07,17.71,.04,26.56-.01,4.93-2.08,7.61-5.76,7.56-3.59-.04-5.47-2.52-5.49-7.33-.02-8.85-.08-17.71,.04-26.56,.03-2.33-.44-3.21-3.02-3.17-10.85,.16-21.7,.04-32.54,.08-6.84,.02-10.44,3.49-10.46,10.32-.06,21.57-.06,43.14,0,64.71,.02,6.83,3.61,10.26,10.48,10.28,9.98,.03,19.95,0,29.93,0q5.57,0,5.57-5.75c0-8.48-.05-16.96,.05-25.44,.04-3.49,2.04-5.54,5.14-5.73,3.2-.2,5.6,1.89,6.01,5.33,.13,1.11,.06,2.24,.06,3.36,0,21.82,0,43.64,.02,65.46,0,1.73,0,3.54,.47,5.18,1.48,5.23,6.82,8.49,12.16,7.65,5.3-.83,9.17-5.35,9.19-11.06,.07-14.34,.02-28.68,.02-43.02Zm59.53,118.41c4.6,0,9.21-.09,13.81,.04,1.96,.06,2.6-.55,2.52-2.51-.14-3.48-.16-6.97,0-10.44,.1-2.11-.54-2.78-2.69-2.73-5.59,.15-11.2-.06-16.79,.08-4.05,.1-9.76-1.84-11.72,.75-2.05,2.71-.49,8.1-.66,12.31-.08,1.91,.45,2.61,2.47,2.54,4.35-.15,8.71-.05,13.06-.05ZM22.42,53.78v-11.95c0-7.66,0-7.5-7.78-7.67-2.98-.07-3.44,.99-3.4,3.62,.15,9.21,.06,18.42,.06,27.64,0,8.4,0,8.33,8.45,8.21,2.06-.03,2.78-.52,2.73-2.67-.14-5.72-.05-11.45-.05-17.18Z"/>
  </g>
</svg>