<?xml version="1.0" encoding="UTF-8"?>
<svg id="Layer_2" data-name="Layer 2" xmlns="http://www.w3.org/2000/svg" viewBox="0 0 383.11 379.14">
  <defs>
    <style>
      .cls-1 {
        fill: #fccd67;
      }
    </style>
  </defs>
  <g id="Layer_3" data-name="Layer 3">
    <g>
      <path class="cls-1" d="M0,3.96C2.34,.88,5.38-.04,9.26,0,26.09,.19,42.93,.08,59.76,.08c1.12,0,2.25-.04,3.36,.07,2.85,.3,4.57,1.99,4.93,4.76,.38,2.97-.99,5.12-3.89,5.99-1.28,.38-2.7,.39-4.06,.39-15.21,.02-30.43,.08-45.64-.05-2.55-.02-3.3,.53-3.3,3.21,.08,75.57,.07,151.14,.02,226.71,0,2.31,.41,3.14,2.98,3.14,69.58-.08,139.17-.08,208.75,0,2.44,0,3.46-1.05,4.52-2.9,13.45-23.41,26.95-46.78,40.44-70.16,4.21-7.3,8.46-8.17,15.13-3.12,11.43,8.66,14.66,24.22,7.42,37.21-6.54,11.73-13.41,23.28-20.08,34.94-.65,1.13-1.69,2.14-1.67,3.96,1.26,0,2.46,0,3.66,0,31.92,0,63.85-.05,95.77,.08,3.05,.01,3.87-.62,3.87-3.79-.1-75.07-.1-150.14,0-225.21,0-3.14-.54-4.1-3.95-4.09-92.03,.11-184.06,.09-276.09,.08-1.49,0-3.03,.05-4.45-.3-2.91-.72-4.5-2.81-4.25-5.76,.24-2.89,1.97-4.79,5.03-5.09,1.11-.11,2.24-.07,3.36-.07,94.03,0,188.05,0,282.08,0,7.71,0,9.43,1.71,9.43,9.41,0,78.94,0,157.87,0,236.81,0,7.38-1.81,9.17-9.31,9.17-36.16,0-72.33,.05-108.49-.09-2.96-.01-4.44,.97-5.74,3.42-2.51,4.72-5.25,9.32-8.03,13.89-1.07,1.76-1.29,3.17-.11,5.03,2.59,4.1,5.04,8.3,7.31,12.58,1.32,2.49,2.24,2.94,4.62,.9,29.73-25.5,74.09-10.69,82.56,27.49,5.22,23.52-8.26,48.23-31.08,56.99-22.95,8.81-49.72-.6-61.56-21.63-2-3.55-1.44-6.76,1.47-8.48,3.05-1.8,6.06-.62,8.56,3.36,15.35,24.33,49.53,25.25,65.66,1.77,10.92-15.89,8.37-37.59-5.95-50.66-14.57-13.3-36.29-13.85-51.24-1.3-.95,.8-1.88,1.64-2.85,2.42-6.1,4.83-14.27,3.57-18.51-2.99-2.36-3.65-4.42-7.48-6.82-11.56-2.51,4.33-4.74,8.44-7.23,12.38-1.05,1.66-.37,2.74,.39,4.04,3.57,6.13,7.11,12.27,10.66,18.41,3.09,5.35,2.98,8.38-.38,10.41-3.39,2.05-6.21,.63-9.27-4.65-2.84-4.9-5.7-9.8-8.82-15.18-2.84,4.87-5.39,9.23-7.92,13.6-5.67,9.8-11.16,19.71-17.02,29.39-10.42,17.2-31.14,26.79-50.14,23.49-21.49-3.72-37.26-18.47-41.77-39.05-4.6-20.98,4.51-42.1,23.15-53.64,17.79-11.02,40.88-9.54,57.32,3.67,4.83,3.88,4.9,3.92,7.86-1.44,2.39-4.33,6.93-8.45,6.65-12.98-.27-4.35-4.74-8.29-6.63-12.72-2.38-5.57-5.93-7.06-11.98-7.03-59.61,.28-119.22,.14-178.82,.24-3.94,0-7.2-.69-9.65-3.91V3.96ZM214.37,286.45c-2.41,4.13-4.46,7.97-6.81,11.62-4.34,6.74-12.55,7.96-18.78,2.94-.78-.63-1.52-1.29-2.28-1.94-16.88-14.39-42.03-11.91-55.85,5.5-13.82,17.4-10.48,42.29,7.45,55.62,17.63,13.11,43.41,9.11,55.21-9.58,11.67-18.49,22.14-37.74,33.3-56.95-4.85-1.13-8.91-3.16-12.24-7.21Zm29.24-22.34c12.64-21.89,25.15-43.34,37.41-64.94,4.05-7.13,2.24-15.56-3.99-21.17-.65,1.09-1.3,2.14-1.91,3.2-10.25,17.75-20.49,35.49-30.74,53.24-3.91,6.78-7.84,13.54-11.72,20.34-.52,.91-2.03,2.21,.37,2.71,4.2,.88,7.44,3.28,10.57,6.62Zm-14.64,18.22c3.94,0,7.05-3.17,7-7.13-.05-3.76-3.09-6.88-6.83-6.99-3.83-.11-7.16,3.13-7.2,7.01-.04,3.95,3.09,7.12,7.03,7.11Zm-14.68-18.38c1.65-2.9,3.57-5.28,4.34-8.2h-9.16c1.7,2.9,3.19,5.43,4.82,8.2Z"/>
      <path class="cls-1" d="M112.58,127.64c.13-43.7,35.66-78.97,79.39-78.81,43.43,.16,78.94,35.99,78.56,79.25-.38,43.69-35.7,78.77-79.2,78.66-43.44-.11-78.88-35.7-78.75-79.1Zm146.71,.29c.14-37.14-30.1-67.68-67.2-67.86-37.63-.19-68.12,29.98-68.26,67.54-.14,37.11,30.11,67.69,67.19,67.91,37.55,.22,68.13-30.05,68.27-67.58Z"/>
      <path class="cls-1" d="M296.68,353.43c-13.64-.01-24.67-11.07-24.65-24.72,.02-13.62,11.12-24.71,24.72-24.69,13.58,.02,24.74,11.21,24.7,24.76-.04,13.62-11.13,24.66-24.77,24.65Zm.04-11.23c7.46,0,13.56-6.13,13.49-13.55-.07-7.27-6.06-13.3-13.31-13.39-7.46-.1-13.58,5.92-13.62,13.4-.05,7.49,5.96,13.54,13.45,13.54Z"/>
      <path class="cls-1" d="M18.7,35.82c0-3.37-.06-6.73,.02-10.1,.1-4.34,2.4-6.83,6.63-6.9,6.98-.11,13.96-.11,20.94,0,4.05,.06,6.53,2.44,6.63,6.55,.17,6.98,.17,13.96,0,20.94-.1,4.09-2.55,6.46-6.66,6.55-6.98,.15-13.96,.15-20.94,0-4.28-.1-6.51-2.59-6.6-6.95-.07-3.36-.01-6.73-.01-10.1Zm16.99,5.87q6.05,0,6.05-5.69,0-5.99-6.07-5.99-5.74,0-5.74,5.84t5.76,5.83Z"/>
      <path class="cls-1" d="M347.33,18.8c3.49,0,6.98-.09,10.47,.02,4.08,.13,6.5,2.5,6.57,6.58,.11,6.98,.11,13.96,0,20.94-.06,3.92-2.36,6.4-6.26,6.5-7.23,.18-14.46,.17-21.69-.01-3.81-.1-6.15-2.6-6.24-6.55-.15-6.98-.16-13.96,0-20.94,.1-4.07,2.62-6.39,6.67-6.51,3.49-.1,6.98-.02,10.47-.02Zm.21,22.89c.62,0,1.26-.09,1.86,.02,3.07,.56,3.95-.59,3.85-3.74-.25-7.97-.08-7.8-8.19-8.03-3.25-.09-4.22,.99-3.72,3.97,.08,.48,.01,.99,.01,1.49q0,6.3,6.18,6.3Z"/>
      <path class="cls-1" d="M364.41,219.81c0,3.37,.07,6.73-.02,10.1-.11,4.28-2.49,6.76-6.73,6.82-6.86,.1-13.71,.09-20.57,0-4.3-.05-6.82-2.4-6.91-6.68-.15-6.98-.16-13.97,.01-20.94,.09-3.88,2.5-6.34,6.38-6.45,7.1-.19,14.21-.2,21.31-.02,4.25,.11,6.42,2.68,6.51,7.06,.07,3.36,.01,6.73,.01,10.1Zm-11.23,.04q0-6.04-4.13-6.05-7.68,0-7.68,4.44,0,7.29,4.77,7.29,7.04,0,7.04-5.68Z"/>
      <path class="cls-1" d="M35.54,236.76c-3.37,0-6.73,.08-10.1-.02-4.09-.12-6.63-2.47-6.7-6.45-.12-7.1-.12-14.21,0-21.32,.07-3.66,2.38-6.17,6.1-6.28,7.22-.21,14.46-.2,21.69-.02,3.89,.1,6.28,2.53,6.38,6.44,.18,6.98,.17,13.96,.01,20.94-.1,4.28-2.62,6.58-6.91,6.69-3.49,.09-6.98,.02-10.47,.02Zm6.2-17c-.1-6.74,.87-5.88-4.3-5.94-7.51-.07-7.51-.02-7.51,4.14q0,7.57,4.4,7.57,7.41,0,7.41-5.77Z"/>
      <path class="cls-1" d="M18.7,81.78c0-3.36-.06-6.72,.01-10.07,.1-4.43,2.51-6.95,6.95-7.02,6.84-.1,13.68-.11,20.52,0,4.02,.07,6.62,2.49,6.73,6.5,.18,7.08,.19,14.18,0,21.26-.11,3.99-2.74,6.39-6.77,6.45-6.84,.11-13.68,.1-20.52,0-4.41-.06-6.81-2.6-6.9-7.06-.07-3.36-.01-6.71-.01-10.07Zm16.9,5.92q6.14,0,6.14-5.89t-5.75-5.92q-6.06,0-6.06,6.28,0,5.53,5.67,5.53Z"/>
      <path class="cls-1" d="M364.4,81.78c0,3.36,.06,6.72-.01,10.07-.1,4.46-2.5,6.99-6.91,7.06-6.71,.1-13.43,.08-20.14,0-4.48-.05-7.07-2.43-7.16-6.84-.15-6.84-.14-13.68,0-20.52,.09-4.4,2.67-6.82,7.12-6.88,6.71-.09,13.43-.1,20.14,0,4.43,.07,6.85,2.59,6.95,7.02,.08,3.36,.02,6.71,.02,10.07Zm-11.23-.05c-.6-2.22,2.04-6.33-3.98-5.95-7.8,.49-7.83,.11-7.83,4.7q0,7.23,4.42,7.23,7.39,0,7.39-5.98Z"/>
      <path class="cls-1" d="M364.41,174c0,3.23,.05,6.47-.01,9.7-.09,4.47-2.45,7.07-6.82,7.16-6.84,.14-13.68,.13-20.52,0-4.23-.08-6.78-2.56-6.88-6.76-.15-6.96-.16-13.93,0-20.89,.1-4.17,2.75-6.52,7.02-6.56,6.71-.07,13.43-.07,20.14,0,4.6,.05,6.97,2.55,7.05,7.28,.05,3.36,.01,6.71,0,10.07Zm-11.23-.08q0-6.05-4.02-6.05-7.79,0-7.8,4.21,0,7.59,4.83,7.59,6.98,0,6.98-5.74Z"/>
      <path class="cls-1" d="M35.54,156.63c3.48,0,6.96-.06,10.44,.02,4.23,.1,6.84,2.44,6.94,6.66,.17,6.96,.16,13.93,0,20.89-.1,4.04-2.6,6.56-6.59,6.65-6.96,.16-13.93,.15-20.89,.01-4.2-.09-6.66-2.68-6.71-6.88-.09-6.84-.09-13.68,0-20.52,.06-4.23,2.54-6.69,6.74-6.81,3.35-.1,6.71-.02,10.07-.02Zm.14,11.23q-5.75,0-5.75,5.81,0,5.99,5.99,5.99,5.82,0,5.82-5.86t-6.07-5.94Z"/>
      <path class="cls-1" d="M364.4,128.09c0,3.37,.08,6.73-.02,10.1-.13,4.08-2.47,6.52-6.55,6.59-6.98,.12-13.96,.12-20.94,0-4.08-.06-6.59-2.43-6.69-6.49-.17-6.98-.16-13.96,0-20.94,.09-4.11,2.53-6.51,6.59-6.59,6.98-.13,13.96-.14,20.94-.01,4.29,.08,6.57,2.52,6.68,6.86,.08,3.49,.02,6.98,.01,10.47Zm-11.23,.05q0-6.19-4.27-6.19-7.54,0-7.54,4.17,0,7.48,4.58,7.48,7.23,0,7.23-5.46Z"/>
      <path class="cls-1" d="M36.04,144.82c-3.49,0-6.98,.07-10.47-.03-4.35-.12-6.77-2.44-6.84-6.69-.1-6.85-.09-13.71,0-20.57,.06-4.31,2.4-6.71,6.74-6.78,6.85-.12,13.71-.12,20.57,0,4.48,.07,6.84,2.48,6.92,7.06,.11,6.6,.11,13.21,0,19.82-.08,4.74-2.48,7.07-7.19,7.18-3.24,.08-6.48,.02-9.72,.01Zm5.71-17.32c-.08-6.36,.77-5.5-4.28-5.54-7.53-.07-7.53-.02-7.53,4.03q0,7.6,4.35,7.6,7.46,0,7.46-6.09Z"/>
      <path class="cls-1" d="M185.86,328.67c.04,13.67-10.95,24.73-24.6,24.76-13.64,.02-24.75-11-24.82-24.61-.07-13.52,11.12-24.76,24.68-24.8,13.63-.03,24.7,10.99,24.74,24.65Zm-11.24,.37c.16-7.48-5.79-13.69-13.23-13.79-7.42-.1-13.63,5.96-13.71,13.38-.07,7.26,5.87,13.4,13.12,13.56,7.56,.16,13.66-5.64,13.82-13.15Z"/>
      <path class="cls-1" d="M170.99,100.21v54.61c1.6,.02,2.54-1.13,3.75-1.66,2.97-1.3,6.03-.5,7.54,2.02,1.55,2.58,.95,5.77-1.8,7.53-3.77,2.4-7.64,4.68-11.63,6.68-4.06,2.04-8.14-.2-9.02-4.69-.21-1.09-.22-2.23-.22-3.34-.01-22.31,.21-44.62-.12-66.93-.12-8.21,5.7-10.88,12.2-6.95,19.26,11.63,38.9,22.62,58.37,33.89,6.36,3.68,6.38,9.09,.03,12.8-8.59,5.02-17.21,9.98-25.84,14.92-3.78,2.16-7.05,1.63-8.8-1.31-1.86-3.11-.66-6.16,3.38-8.5,6.45-3.75,12.9-7.48,19.87-11.51-15.99-9.24-31.66-18.29-47.7-27.56Z"/>
    </g>
  </g>
</svg>