<?xml version="1.0" encoding="UTF-8"?>
<svg id="Layer_2" data-name="Layer 2" xmlns="http://www.w3.org/2000/svg" viewBox="0 0 383.11 349.7">
  <defs>
    <style>
      .cls-1 {
        fill: #fccd67;
      }
    </style>
  </defs>
  <g id="Layer_4" data-name="Layer 4">
    <g>
      <path class="cls-1" d="M0,20.64c1.11-.36,.82-1.45,1.08-2.2C4.95,7.17,13.76,.54,25.67,.03c.87-.04,1.75-.02,2.62-.02C137.14,0,245.99,0,354.85,0c13.55,0,23.31,6.59,27.01,18.15,1,3.13,1.25,6.32,1.25,9.59-.02,72.32,0,144.65-.02,216.97,0,16.74-10.77,27.57-27.59,27.59-35.91,.05-71.82,.02-107.73,.02-8.1,0-16.21,.07-24.31-.04-2.43-.03-3.11,.35-2.01,2.85,4.77,10.79,9.45,21.63,14.02,32.52,.78,1.86,1.84,2.28,3.67,2.28,4.6,0,9.22-.38,13.75,.85,11.62,3.14,20.01,14.11,17.66,29.37-.77,5.02-4.92,8.55-10,9.23-1.47,.2-2.98,.19-4.47,.19-42.52,0-85.04-.23-127.55,.15-13.12,.12-17.66-6.24-16.13-18.48,1.46-11.74,10.74-20.39,22.55-21.17,2.98-.2,5.99-.26,8.97-.12,2.11,.1,3.04-.71,3.83-2.61,4.49-10.65,9.05-21.27,13.76-31.82,1.24-2.79,.52-3.24-2.23-3.23-21.07,.08-42.14,.05-63.22,.04-1.12,0-2.25,.04-3.36-.05-3.37-.29-5.43-2.36-5.47-5.45-.04-3.03,2.01-5.28,5.3-5.67,1.23-.15,2.49-.07,3.74-.07,86.28,0,172.57,0,258.85,0,9.75,0,16.33-5.37,16.67-13.84,.23-5.83,.04-11.68,.04-18.27-7.63,5.56-16.06,4.69-24.35,4.69-105.61,0-211.22-.01-316.83,.04-6.68,0-13.15-.47-19.27-4.53,0,6.84-.5,13.29,.13,19.63,.73,7.37,7.04,12.2,15.03,12.25,13.47,.09,26.93,.03,40.4,.03,.87,0,1.75-.03,2.62,0,4.04,.2,6.42,2.42,6.3,5.85-.11,3.31-2.35,5.35-6.32,5.37-14.71,.05-29.43,.19-44.14-.07-11.58-.21-20.32-6.97-24.16-17.85-.3-.85-.05-2.08-1.25-2.52V20.64ZM191.94,11.25c-54.48,0-108.96,0-163.45,0-11.69,0-17.26,5.52-17.26,17.08,0,58.97,0,117.95,0,176.92,0,11.53,5.64,17.15,17.22,17.16,108.72,0,217.43,0,326.15,0,11.59,0,17.26-5.63,17.26-17.12,0-58.85,0-117.7,0-176.55,0-12.09-5.44-17.49-17.6-17.49-54.11,0-108.22,0-162.33,0Zm-.42,327.06c21.55,0,43.1-.05,64.65,.06,2.73,.01,3.62-.61,3.54-3.49-.26-8.55-5.53-13.72-14.69-13.74-23.92-.05-47.83-.02-71.75-.02-11.96,0-23.92-.08-35.87,.03-8.43,.08-13.64,5.31-13.99,13.29-.13,3.06,.66,3.97,3.84,3.95,21.42-.15,42.85-.08,64.28-.08Zm.07-28.43c9.83,0,19.67-.05,29.5,.04,2.33,.02,3.17-.22,2.01-2.82-4.78-10.77-9.42-21.61-13.99-32.47-.75-1.77-1.67-2.38-3.59-2.36-9.21,.1-18.42,.14-27.63-.02-2.28-.04-3.26,.81-4.09,2.78-4.48,10.63-9.02,21.24-13.68,31.79-1.06,2.41-.9,3.16,1.97,3.12,9.83-.14,19.66-.05,29.5-.05Z"/>
      <path class="cls-1" d="M237.96,135.46c0,7.48-.07,14.96,.03,22.43,.04,3.07-1.09,5.18-3.76,6.71-13.05,7.48-26.07,15.01-39.07,22.57-2.53,1.47-4.84,1.4-7.36-.07-12.88-7.51-25.79-14.99-38.74-22.39-2.81-1.6-3.99-3.73-3.97-6.96,.09-14.83,.09-29.66,0-44.49-.02-3.09,1.1-5.16,3.77-6.69,12.94-7.41,25.87-14.86,38.73-22.4,2.81-1.65,5.26-1.55,8.02,.06,12.77,7.46,25.58,14.85,38.42,22.2,2.78,1.59,4.04,3.71,3.98,6.97-.15,7.35-.05,14.7-.05,22.06Zm-75.95-23.46c9.64,5.57,18.68,10.79,27.71,16.02,.96,.55,1.76,1.15,3.03,.41,9.27-5.43,18.6-10.77,28.38-16.42-9.72-5.63-18.93-10.96-28.14-16.3-.95-.55-1.8-.62-2.78-.04-9.2,5.36-18.42,10.69-28.2,16.34Zm64.71,9.79c-9.75,5.64-18.87,10.92-28.01,16.15-.98,.56-1.5,1.19-1.49,2.32,.01,10.68,0,21.36,0,32.68,9.88-5.68,19.21-11.05,28.56-16.42,.91-.52,.95-1.32,.95-2.23-.02-10.59-.01-21.17-.01-32.51Zm-40.85,51.15c0-11.25-.04-21.83,.04-32.42,.02-1.98-1.32-2.47-2.59-3.2-8.07-4.67-16.13-9.37-24.23-13.99-.75-.43-1.47-1.51-2.72-.68,0,10.3,.02,20.64-.03,30.99,0,1.49,.26,2.47,1.72,3.29,9.07,5.13,18.08,10.38,27.81,16Z"/>
      <path class="cls-1" d="M72.97,109.65c0,21.31,0,42.61,0,63.92,0,9.48-3.87,13.32-13.39,13.33-7.47,0-14.95,.04-22.42,0-7.76-.05-12-4.17-12.07-12-.11-11.21-.03-22.43-.03-33.64,0-31.65,0-63.29,0-94.94,0-10.26,3.65-13.88,13.96-13.89,6.98,0,13.95-.02,20.93,0,9.05,.03,13.01,3.94,13.02,12.94,.02,21.43,0,42.86,0,64.29Zm-11.26,.12c0-20.94-.04-41.88,.06-62.81,.01-2.51-.49-3.46-3.21-3.37-6.47,.21-12.96,.18-19.44,0-2.39-.06-2.86,.75-2.85,2.96,.06,42.12,.07,84.25-.02,126.37,0,2.52,.94,2.8,3.03,2.76,6.35-.11,12.72-.21,19.06,.04,2.89,.11,3.45-.79,3.44-3.52-.12-20.81-.07-41.63-.07-62.44Z"/>
      <path class="cls-1" d="M313.07,25.15c11.47,0,22.94-.02,34.41,0,7.38,.02,10.93,3.61,10.94,11.04,.02,19.2,.02,38.4,0,57.6,0,7.63-3.52,11.13-11.25,11.14-22.69,.03-45.38,.03-68.07,0-7.89,0-11.29-3.48-11.29-11.45-.01-19.08-.01-38.15,0-57.23,0-7.64,3.51-11.1,11.23-11.11,11.35-.02,22.69,0,34.04,0Zm.02,68.56c10.34,0,20.67-.06,31.01,.05,2.34,.03,3.18-.45,3.16-3.03-.13-17.18-.12-34.37,0-51.55,.02-2.36-.65-2.85-2.91-2.84-20.79,.09-41.59,.11-62.38-.01-2.61-.02-2.98,.88-2.97,3.16,.08,17.06,.1,34.12-.01,51.18-.02,2.48,.66,3.14,3.11,3.1,10.33-.13,20.67-.06,31.01-.06Z"/>
      <path class="cls-1" d="M197.17,50.95c0,6.6-.01,12.56,0,18.52,0,2.98-.86,5.46-3.96,6.45-3.87,1.24-7.17-1.44-7.27-6.05-.12-6.08-.03-12.17-.03-18.86-2.66,1.48-4.87,2.73-7.11,3.94-3.75,2.02-7.09,1.37-8.72-1.66-1.58-2.93-.46-5.98,3.07-8.02,4.94-2.86,9.96-5.59,14.87-8.49,2.4-1.42,4.61-1.42,7-.03,5.04,2.93,10.17,5.71,15.2,8.67,3.27,1.92,4.28,5.03,2.78,7.85-1.56,2.94-4.89,3.7-8.39,1.85-2.28-1.21-4.51-2.51-7.46-4.17Z"/>
      <path class="cls-1" d="M121.1,182.75c2.6,1.57,5.05,2.98,7.43,4.5,3.25,2.06,4.18,5.08,2.53,7.9-1.69,2.89-4.76,3.67-8.08,1.79-5.31-2.99-10.49-6.19-15.8-9.17-2.3-1.29-2.97-3.34-3.01-5.61-.12-6.1-.17-12.21-.01-18.31,.09-3.52,2.51-5.67,5.7-5.63,3.23,.04,5.29,2.21,5.46,5.81,.06,1.37,.02,2.74,.02,4.11,0,1.37,0,2.74,0,4.83,3.96-2.24,7.56-4.28,11.16-6.32,1.95-1.1,3.84-2.3,5.84-3.3,3.17-1.59,6.22-.75,7.76,1.99,1.55,2.75,.77,5.9-2.24,7.71-5.43,3.27-10.96,6.35-16.77,9.7Z"/>
      <path class="cls-1" d="M262.05,182.76c-5.29-3.05-10.23-5.9-15.17-8.74-4.42-2.54-5.71-5.37-3.93-8.62,1.77-3.23,5.05-3.65,9.37-1.19,4.93,2.82,9.86,5.64,15.43,8.83,0-3.37-.07-6.16,.02-8.94,.11-3.65,2.14-5.79,5.38-5.87,3.2-.08,5.67,2.06,5.77,5.55,.17,6.35,.09,12.71,.02,19.06-.03,2.31-1.39,3.94-3.32,5.08-5.25,3.09-10.46,6.24-15.79,9.2-3.1,1.72-6.12,.84-7.78-1.92-1.62-2.7-.84-5.78,2.14-7.72,2.48-1.61,5.07-3.05,7.86-4.7Z"/>
      <path class="cls-1" d="M49.06,60.16c2.25-.05,4.49-.14,6.2,1.79,2.03,2.31,1.97,5.58-.21,7.73-2.53,2.49-9.69,2.45-12.15-.07-2.15-2.2-2.14-5.44-.05-7.74,1.74-1.92,3.99-1.74,6.22-1.72Z"/>
      <path class="cls-1" d="M49.14,89.44c3.2-.25,5.99,.33,7.25,3.8,.93,2.58,.04,4.67-1.99,6.26-2.32,1.81-8.82,1.71-11-.16-1.96-1.69-2.72-3.8-1.69-6.35,1.4-3.45,4.29-3.76,7.43-3.55Z"/>
      <path class="cls-1" d="M48.94,159.14c-2.89,.24-5.55-.1-7.02-3.03-1.29-2.57-.7-4.87,1.36-6.74,2.29-2.07,8.87-2.15,11.29-.13,2.28,1.91,2.88,4.34,1.47,7.01-1.52,2.89-4.25,3.12-7.09,2.89Z"/>
      <path class="cls-1" d="M48.76,129.9c-2.45,.18-4.8-.06-6.34-2.28-1.82-2.62-1.55-5.19,.7-7.41,2.37-2.32,9.56-2.27,11.85,.08,2.21,2.26,2.42,4.84,.55,7.42-1.69,2.33-4.23,2.32-6.77,2.18Z"/>
      <path class="cls-1" d="M313.22,80.45c-5.61,0-11.22,.04-16.83-.01-4.34-.04-6.86-2.21-6.83-5.72,.03-3.49,2.51-5.49,6.94-5.5,11.1-.02,22.2-.02,33.29,0,4.3,0,6.92,2.18,6.87,5.61-.05,3.44-2.65,5.57-6.98,5.61-5.49,.05-10.97,.01-16.46,.01Z"/>
      <path class="cls-1" d="M303.9,49.76c2.74,0,5.49-.07,8.23,.02,3.29,.1,5.6,2.2,5.81,5.14,.22,2.92-1.88,5.79-5.02,5.92-6.1,.25-12.22,.25-18.32,0-3.18-.13-5.22-2.88-5.04-5.88,.17-2.97,2.43-5.08,5.73-5.19,2.87-.09,5.74-.02,8.6-.02Z"/>
    </g>
  </g>
</svg>